<?xml version="1.0" encoding="UTF-8"?>
<svg id="Layer_2" xmlns="http://www.w3.org/2000/svg" version="1.1" viewBox="0 0 328 328">
  <!-- Generator: Adobe Illustrator 29.1.0, SVG Export Plug-In . SVG Version: 2.1.0 Build 142)  -->
  <defs>
    <style>
      .st0 {
        fill: #efefef;
      }

      .st1 {
        fill: #191919;
      }
    </style>
  </defs>
  <rect class="st1" width="328" height="328" rx="32" ry="32"/>
  <g>
    <path class="st0" d="M65.3,147.1c1.9-.8,9.2-3.8,12.1-3.8.6,1.8,1.3,8.5,1.3,13.8h.1c6.1-11.5,14.3-13.8,18.1-13.8s3.4.4,4.5,1.1c0,1.6-1.3,7.7-3.2,12.1l-.5.5c-1-1.4-2.5-4.4-3.9-8.6-.4-.1-.8-.3-1.8-.3-4.9,0-9.3,4.9-13.1,13.5v33.6l11.6,3.8v.5c-2.4-.1-8.8-.4-16.9-.4s-9.1.3-10.9.4v-.5l7.3-3.9c1-20.7,1-36.2,1-43.4l-6.3-4.2.5-.5Z"/>
    <path class="st0" d="M140.8,145l-2.1,2.4-16.5,1.5v41.3c0,1.1,1.4,3,2,3.7,1.4,1,3.3,1.9,6.6,1.9s7.8-1.8,9.8-3.3l.4.3-.4,2.1c-2.8,3.5-7.2,6.1-13,6.1s-8.2-2-10.7-5.1c-2-2.7-2.7-5.6-2.7-13.5v-33.5l-8.2-1.5,1.9-2.4h6.4c.3-2.7.9-7.7,2.1-13.1,1-2.4,4.4-4.8,6.2-4.8l-.5,17.9h18.7Z"/>
    <path class="st0" d="M144.4,172.3c0-19.2,15.5-28.9,30.7-28.9s13.8,3,15.3,4.5c-1,3.8-2.5,9-4.3,12.1l-.3.3c-1.1-2.4-2.3-7.3-3.5-13.4-1.1-.5-2.8-.8-5.8-.8-15.9,0-23.2,12.5-23.2,25.6s10,25.4,23.4,25.4,2.8-.3,3.7-.5c5.3-4.9,8.3-7.1,10.4-8.1v.3c-.9,3.3-5.6,9.2-7.3,10.2-2.1.8-7.8,1.9-11.4,1.9-10.1,0-27.5-6.8-27.5-28.5h0Z"/>
    <path class="st0" d="M196.9,172.3c0-19.2,15.5-28.9,30.7-28.9s13.8,3,15.3,4.5c-1,3.8-2.5,9-4.3,12.1l-.3.3c-1.1-2.4-2.3-7.3-3.5-13.4-1.1-.5-2.8-.8-5.8-.8-15.9,0-23.2,12.5-23.2,25.6s10,25.4,23.4,25.4,2.8-.3,3.7-.5c5.3-4.9,8.3-7.1,10.4-8.1v.3c-.9,3.3-5.6,9.2-7.3,10.2-2.1.8-7.8,1.9-11.4,1.9-10.1,0-27.5-6.8-27.5-28.5h0Z"/>
    <path class="st0" d="M260.3,188.4c1.4.5,4,3.7,4.9,5.6v1c-1,1.8-3.9,4.7-5.4,5.6l-.8.3c-1.9-1.1-4-3.8-4.9-5.7l.3-1c1.4-2,3.7-4.5,5.3-5.4l.6-.3Z"/>
  </g>
</svg>